<?xml version="1.0" encoding="utf-8"?>
<!-- Generator: Adobe Illustrator 16.0.0, SVG Export Plug-In . SVG Version: 6.00 Build 0)  -->
<!DOCTYPE svg PUBLIC "-//W3C//DTD SVG 1.1//EN" "http://www.w3.org/Graphics/SVG/1.1/DTD/svg11.dtd">
<svg version="1.1" id="Layer_1" xmlns="http://www.w3.org/2000/svg" xmlns:xlink="http://www.w3.org/1999/xlink" x="0px" y="0px"
	 width="207.949px" height="79.604px" viewBox="0 0 207.949 79.604" enable-background="new 0 0 207.949 79.604"
	 xml:space="preserve">
<g>
	<g>
		<path fill="#2B303E" d="M158.896,9.186h-17.793c-0.609,0-1.104-0.494-1.104-1.103c0-0.609,0.494-1.104,1.104-1.104h17.793
			c0.609,0,1.104,0.494,1.104,1.104C160,8.691,159.506,9.186,158.896,9.186z"/>
	</g>
	<g>
		<path fill="#2B303E" d="M151.918,16.165c-0.282,0-0.564-0.107-0.78-0.323c-0.431-0.431-0.431-1.13,0-1.561l6.979-6.979
			c0.432-0.432,1.13-0.432,1.561,0c0.431,0.431,0.431,1.129,0,1.56l-6.979,6.979C152.482,16.058,152.2,16.165,151.918,16.165z"/>
	</g>
	<g>
		<path fill="#2B303E" d="M158.896,9.186c-0.282,0-0.564-0.107-0.78-0.323l-6.979-6.979c-0.431-0.432-0.431-1.13,0-1.561
			s1.13-0.431,1.561,0l6.979,6.979c0.431,0.431,0.431,1.129,0,1.56C159.462,9.078,159.179,9.186,158.896,9.186z"/>
	</g>
</g>
<g>
	<path fill="#2B303E" d="M189.404,4.207l-3.609-3.611c-0.795-0.795-2.096-0.795-2.89,0l-13.006,13.006l-4.557,4.559l1.442,1.443
		c0.001,0,0.002,0.002,0.002,0.002l3.609,3.611c0.001,0,0.001,0,0.001,0l1.445,1.443l10.84-10.844l6.722-6.721
		C190.199,6.301,190.199,5.002,189.404,4.207z"/>
	<path fill="#2B303E" d="M161.92,23.043l-0.723-0.727l-0.175,1.006l-0.005,0.021l-0.291,1.668l-0.711,4.07
		c-0.097,0.555,0.278,0.959,0.831,0.863l5.763-0.973h0.001l1.005-0.209l-0.722-0.738L161.92,23.043z"/>
</g>
<g>
	<path fill="#2B303E" d="M208.982,1.95h-5.538c0.003-0.039,0.055-0.077,0.055-0.118V1.167c0-0.642-0.575-1.167-1.217-1.167h-3.664
		c-0.643,0-1.119,0.525-1.119,1.167v0.665c0,0.041-0.048,0.079-0.043,0.118h-5.539C190.83,1.95,190,2.83,190,3.918v0.266
		c0,1.085,0.83,1.968,1.917,1.968h17.065c1.087,0,2.018-0.883,2.018-1.968V3.918C211,2.83,210.069,1.95,208.982,1.95z"/>
	<path fill="#2B303E" d="M193.1,9.445h-1.45v1.501v9.3v7.649c0,0.825,0.625,1.5,1.45,1.5h14.85c0.826,0,1.551-0.675,1.551-1.5
		v-7.649v-9.3V9.445h-1.551H193.1z"/>
</g>
<path fill="#D14231" d="M139.67,39.599c-1.63-1.692-1.984-4.196-2.327-6.617c-0.51-3.59-1.082-7.622-6.199-8.15v-0.65
	c0-0.651-0.528-1.181-1.181-1.181c-0.651,0-1.181,0.529-1.181,1.181v0.651c-5.074,0.531-5.643,4.563-6.146,8.15
	c-0.342,2.422-0.693,4.927-2.31,6.619c-0.325,0.343-0.417,0.846-0.231,1.28c0.187,0.435,0.613,0.716,1.086,0.716h4.947
	c0.026,2.093,1.735,3.789,3.835,3.789s3.809-1.696,3.835-3.789h5.021c0.473,0,0.9-0.282,1.086-0.719
	C140.091,40.443,139.998,39.939,139.67,39.599z M129.963,43.024c-0.797,0-1.444-0.636-1.471-1.427h1.471h1.471
	C131.407,42.389,130.761,43.024,129.963,43.024z M129.963,39.236h-6.521c0.962-1.874,1.26-3.993,1.531-5.925
	c0.587-4.173,1.044-6.179,4.989-6.179c3.988,0,4.45,2.006,5.042,6.18c0.273,1.931,0.573,4.05,1.542,5.924H129.963z"/>
<g>
	<g>
		<path fill="#2B303E" d="M100,2c9.925,0,18,8.074,18,18c0,9.925-8.075,18-18,18c-9.926,0-18-8.075-18-18C82,10.074,90.074,2,100,2
			 M100,0C88.954,0,80,8.954,80,20s8.954,20,20,20s20-8.954,20-20S111.046,0,100,0L100,0z"/>
	</g>
	<g>
		<polygon fill="#2B303E" points="94.44,8.518 109.813,20.04 94.44,31.563 		"/>
	</g>
</g>
<g>
	<g>
		<path fill="#2B303E" d="M20,2c9.925,0,18,8.074,18,18c0,9.925-8.075,18-18,18S2,29.925,2,20C2,10.074,10.075,2,20,2 M20,0
			C8.954,0,0,8.954,0,20s8.954,20,20,20s20-8.954,20-20S31.046,0,20,0L20,0z"/>
	</g>
	<g>
		<path fill="#2B303E" d="M28.013,23.713c0,4.39-3.558,7.947-7.946,7.947c-4.39,0-7.947-3.558-7.947-7.947
			c0-4.389,7.947-15.213,7.947-15.213S28.013,19.324,28.013,23.713z"/>
	</g>
</g>
<g>
	<g>
		<path fill="#2B303E" d="M60,2c9.926,0,18,8.075,18,18s-8.074,18-18,18c-9.925,0-18-8.075-18-18S50.075,2,60,2 M60,0
			C48.954,0,40,8.954,40,20s8.954,20,20,20s20-8.954,20-20S71.046,0,60,0L60,0z"/>
	</g>
	<g>
		<path fill="#2B303E" d="M59.009,9.064c-0.093-0.739-0.803-7.269,2.645-8.992l0.895,1.789c-1.863,0.931-1.744,5.446-1.555,6.955
			L59.009,9.064z"/>
	</g>
	<g>
		<path fill="#2B303E" d="M60.042,7.951c-4.063,0-7.4,3.294-7.4,7.356v10.316c0,4.063,3.337,7.355,7.4,7.355
			c4.063,0,7.399-3.293,7.399-7.355V15.308C67.441,11.245,64.104,7.951,60.042,7.951z M61.042,16.617c0,0.497-0.448,0.899-1,0.899
			c-0.553,0-1-0.402-1-0.899v-2.451c0-0.497,0.447-0.899,1-0.899c0.552,0,1,0.402,1,0.899V16.617z"/>
	</g>
</g>
<path fill="#D6D7D8" d="M139.67,16.599c-1.63-1.692-1.984-4.196-2.327-6.617c-0.51-3.59-1.082-7.622-6.199-8.15v-0.65
	c0-0.651-0.528-1.181-1.181-1.181c-0.651,0-1.181,0.529-1.181,1.181v0.651c-5.074,0.531-5.643,4.563-6.146,8.15
	c-0.342,2.422-0.693,4.927-2.31,6.619c-0.325,0.343-0.417,0.846-0.231,1.28c0.187,0.435,0.613,0.716,1.086,0.716h4.947
	c0.026,2.093,1.735,3.789,3.835,3.789s3.809-1.696,3.835-3.789h5.021c0.473,0,0.9-0.282,1.086-0.719
	C140.091,17.443,139.998,16.939,139.67,16.599z M129.963,20.024c-0.797,0-1.444-0.636-1.471-1.427h1.471h1.471
	C131.407,19.389,130.761,20.024,129.963,20.024z M129.963,16.236h-6.521c0.962-1.874,1.26-3.993,1.531-5.925
	c0.587-4.173,1.044-6.179,4.989-6.179c3.988,0,4.45,2.006,5.042,6.18c0.273,1.931,0.573,4.05,1.542,5.924H129.963z"/>
<g>
	<g>
		<path fill="#F1F2F2" d="M100,42c9.925,0,18,8.074,18,18c0,9.925-8.075,18-18,18c-9.926,0-18-8.075-18-18
			C82,50.074,90.074,42,100,42 M100,40c-11.046,0-20,8.954-20,20s8.954,20,20,20s20-8.954,20-20S111.046,40,100,40L100,40z"/>
	</g>
	<g>
		<polygon fill="#F1F2F2" points="94.44,48.518 109.813,60.04 94.44,71.563 		"/>
	</g>
</g>
<g>
	<g>
		<path fill="#F1F2F2" d="M20,42c9.925,0,18,8.074,18,18c0,9.925-8.075,18-18,18S2,69.925,2,60C2,50.074,10.075,42,20,42 M20,40
			C8.954,40,0,48.954,0,60s8.954,20,20,20s20-8.954,20-20S31.046,40,20,40L20,40z"/>
	</g>
	<g>
		<path fill="#F1F2F2" d="M28.013,63.713c0,4.39-3.558,7.947-7.946,7.947c-4.39,0-7.947-3.558-7.947-7.947
			c0-4.389,7.947-15.213,7.947-15.213S28.013,59.324,28.013,63.713z"/>
	</g>
</g>
<g>
	<g>
		<path fill="#F1F2F2" d="M60,42c9.926,0,18,8.075,18,18s-8.074,18-18,18c-9.925,0-18-8.075-18-18S50.075,42,60,42 M60,40
			c-11.046,0-20,8.954-20,20s8.954,20,20,20s20-8.954,20-20S71.046,40,60,40L60,40z"/>
	</g>
	<g>
		<path fill="#F1F2F2" d="M59.009,49.064c-0.093-0.739-0.803-7.269,2.645-8.992l0.895,1.789c-1.863,0.931-1.744,5.446-1.555,6.955
			L59.009,49.064z"/>
	</g>
	<g>
		<path fill="#F1F2F2" d="M60.042,47.951c-4.063,0-7.4,3.294-7.4,7.356v10.316c0,4.063,3.337,7.355,7.4,7.355
			c4.063,0,7.399-3.293,7.399-7.355V55.308C67.441,51.245,64.104,47.951,60.042,47.951z M61.042,56.617c0,0.497-0.448,0.899-1,0.899
			c-0.553,0-1-0.402-1-0.899v-2.451c0-0.497,0.447-0.899,1-0.899c0.552,0,1,0.402,1,0.899V56.617z"/>
	</g>
</g>
</svg>
